<?xml version="1.0" encoding="UTF-8" standalone="no"?>
<!DOCTYPE svg PUBLIC "-//W3C//DTD SVG 1.1//EN"
 "http://www.w3.org/Graphics/SVG/1.1/DTD/svg11.dtd">
<!-- Generated by graphviz version 2.43.0 (0)
 -->
<!-- Title: G Pages: 1 -->
<svg width="544pt" height="380pt"
 viewBox="0.00 0.00 544.00 380.00" xmlns="http://www.w3.org/2000/svg" xmlns:xlink="http://www.w3.org/1999/xlink">
<g id="graph0" class="graph" transform="scale(1 1) rotate(0) translate(4 376)">
<title>G</title>
<polygon fill="white" stroke="transparent" points="-4,4 -4,-376 540,-376 540,4 -4,4"/>
<!-- factDT -->
<g id="node1" class="node">
<title>factDT</title>
<polygon fill="white" stroke="transparent" points="77,-61 77,-289 163,-289 163,-61 77,-61"/>
<polygon fill="crimson" stroke="transparent" points="77,-232 77,-289 163,-289 163,-232 77,-232"/>
<polygon fill="none" stroke="black" points="77,-232 77,-289 163,-289 163,-232 77,-232"/>
<text text-anchor="start" x="98" y="-257.8" font-family="Times,serif" font-size="14.00"> </text>
<text text-anchor="start" x="103" y="-257.8" font-family="Times,serif" text-decoration="underline" font-size="14.00">key1</text>
<text text-anchor="start" x="137" y="-257.8" font-family="Times,serif" font-size="14.00"> </text>
<polygon fill="darkcyan" stroke="transparent" points="77,-175 77,-232 163,-232 163,-175 77,-175"/>
<polygon fill="none" stroke="black" points="77,-175 77,-232 163,-232 163,-175 77,-175"/>
<text text-anchor="start" x="98" y="-200.8" font-family="Times,serif" font-size="14.00"> </text>
<text text-anchor="start" x="103" y="-200.8" font-family="Times,serif" text-decoration="underline" font-size="14.00">key2</text>
<text text-anchor="start" x="137" y="-200.8" font-family="Times,serif" font-size="14.00"> </text>
<polygon fill="none" stroke="black" points="77,-118 77,-175 163,-175 163,-118 77,-118"/>
<text text-anchor="start" x="105" y="-142.8" font-family="Times,serif" font-size="14.00">att1</text>
<polygon fill="none" stroke="black" points="77,-61 77,-118 163,-118 163,-61 77,-61"/>
<text text-anchor="start" x="105" y="-85.8" font-family="Times,serif" font-size="14.00">att2</text>
<text text-anchor="start" x="0" y="-299" font-family="Times,serif" font-size="20.00">factDT</text>
</g>
<!-- dim2DT -->
<g id="node2" class="node">
<title>dim2DT</title>
<polygon fill="darkcyan" stroke="transparent" points="442,-4 442,-346 528,-346 528,-4 442,-4"/>
<polygon fill="darkcyan" stroke="transparent" points="442,-289 442,-346 528,-346 528,-289 442,-289"/>
<polygon fill="none" stroke="black" points="442,-289 442,-346 528,-346 528,-289 442,-289"/>
<text text-anchor="start" x="463" y="-314.8" font-family="Times,serif" font-size="14.00"> </text>
<text text-anchor="start" x="468" y="-314.8" font-family="Times,serif" text-decoration="underline" font-size="14.00">key2</text>
<text text-anchor="start" x="502" y="-314.8" font-family="Times,serif" font-size="14.00"> </text>
<polygon fill="green" stroke="transparent" points="442,-232 442,-289 528,-289 528,-232 442,-232"/>
<polygon fill="none" stroke="black" points="442,-232 442,-289 528,-289 528,-232 442,-232"/>
<text text-anchor="start" x="463" y="-257.8" font-family="Times,serif" font-size="14.00"> </text>
<text text-anchor="start" x="468" y="-257.8" font-family="Times,serif" text-decoration="underline" font-size="14.00">key4</text>
<text text-anchor="start" x="502" y="-257.8" font-family="Times,serif" font-size="14.00"> </text>
<polygon fill="none" stroke="black" points="442,-175 442,-232 528,-232 528,-175 442,-175"/>
<text text-anchor="start" x="468.5" y="-199.8" font-family="Times,serif" font-size="14.00">keys</text>
<polygon fill="none" stroke="black" points="442,-118 442,-175 528,-175 528,-118 442,-118"/>
<text text-anchor="start" x="476.5" y="-142.8" font-family="Times,serif" font-size="14.00">ok</text>
<polygon fill="none" stroke="black" points="442,-61 442,-118 528,-118 528,-61 442,-61"/>
<text text-anchor="start" x="476.5" y="-85.8" font-family="Times,serif" font-size="14.00">ok</text>
<polygon fill="none" stroke="black" points="442,-4 442,-61 528,-61 528,-4 442,-4"/>
<text text-anchor="start" x="476.5" y="-28.8" font-family="Times,serif" font-size="14.00">ok</text>
<text text-anchor="start" x="353" y="-356" font-family="Times,serif" font-size="20.00">dim2DT</text>
</g>
<!-- factDT&#45;&gt;dim2DT -->
<g id="edge1" class="edge">
<title>factDT:key2&#45;&gt;dim2DT:key2</title>
<path fill="none" stroke="black" d="M163,-204C163,-204 442,-318 442,-318"/>
</g>
</g>
</svg>
