<?xml version="1.0" encoding="UTF-8" standalone="no"?>
<!DOCTYPE svg PUBLIC "-//W3C//DTD SVG 1.1//EN"
 "http://www.w3.org/Graphics/SVG/1.1/DTD/svg11.dtd">
<!-- Generated by graphviz version 2.43.0 (0)
 -->
<!-- Title: G Pages: 1 -->
<svg width="1467pt" height="1445pt"
 viewBox="0.00 0.00 1467.35 1444.76" xmlns="http://www.w3.org/2000/svg" xmlns:xlink="http://www.w3.org/1999/xlink">
<g id="graph0" class="graph" transform="scale(1 1) rotate(0) translate(4 1440.76)">
<title>G</title>
<polygon fill="white" stroke="transparent" points="-4,4 -4,-1440.76 1463.35,-1440.76 1463.35,4 -4,4"/>
<!-- SALE -->
<g id="node1" class="node">
<title>SALE</title>
<polygon fill="lightblue" stroke="transparent" points="573.21,-994.96 573.21,-1051.96 765.21,-1051.96 765.21,-994.96 573.21,-994.96"/>
<polygon fill="none" stroke="black" points="573.21,-994.96 573.21,-1051.96 765.21,-1051.96 765.21,-994.96 573.21,-994.96"/>
<text text-anchor="start" x="649.21" y="-1019.76" font-family="Times,serif" font-size="14.00">SALE</text>
<polygon fill="none" stroke="black" points="573.21,-937.96 573.21,-994.96 765.21,-994.96 765.21,-937.96 573.21,-937.96"/>
<text text-anchor="start" x="638.71" y="-962.76" font-family="Times,serif" font-size="14.00">quantity</text>
<polygon fill="none" stroke="black" points="573.21,-880.96 573.21,-937.96 765.21,-937.96 765.21,-880.96 573.21,-880.96"/>
<text text-anchor="start" x="640.21" y="-905.76" font-family="Times,serif" font-size="14.00">receipts</text>
<polygon fill="none" stroke="black" points="573.21,-823.96 573.21,-880.96 765.21,-880.96 765.21,-823.96 573.21,-823.96"/>
<text text-anchor="start" x="594.21" y="-848.76" font-family="Times,serif" font-size="14.00">numberOfCustomers</text>
<polygon fill="none" stroke="black" points="573.21,-766.96 573.21,-823.96 765.21,-823.96 765.21,-766.96 573.21,-766.96"/>
<text text-anchor="start" x="636.21" y="-791.76" font-family="Times,serif" font-size="14.00">unitPrice</text>
</g>
<!-- store -->
<g id="node2" class="node">
<title>store</title>
<ellipse fill="none" stroke="black" cx="755.12" cy="-1088.35" rx="18" ry="18"/>
<text text-anchor="middle" x="718.62" y="-1110.15" font-family="Times,serif" font-size="14.00">store</text>
</g>
<!-- SALE&#45;&gt;store -->
<g id="edge1" class="edge">
<title>SALE&#45;&gt;store</title>
<path fill="none" stroke="black" d="M737.94,-1052.68C741.49,-1060.05 744.67,-1066.65 747.3,-1072.1"/>
</g>
<!-- date -->
<g id="node6" class="node">
<title>date</title>
<ellipse fill="none" stroke="black" cx="471.21" cy="-909.96" rx="18" ry="18"/>
<text text-anchor="middle" x="437.21" y="-931.76" font-family="Times,serif" font-size="14.00">date</text>
</g>
<!-- SALE&#45;&gt;date -->
<g id="edge5" class="edge">
<title>SALE&#45;&gt;date</title>
<path fill="none" stroke="black" d="M573.11,-909.96C541.19,-909.96 508.86,-909.96 489.43,-909.96"/>
</g>
<!-- product -->
<g id="node9" class="node">
<title>product</title>
<ellipse fill="none" stroke="black" cx="755.12" cy="-731.57" rx="18" ry="18"/>
<text text-anchor="middle" x="709.12" y="-753.37" font-family="Times,serif" font-size="14.00">product</text>
</g>
<!-- SALE&#45;&gt;product -->
<g id="edge8" class="edge">
<title>SALE&#45;&gt;product</title>
<path fill="none" stroke="black" d="M737.94,-767.24C741.49,-759.87 744.67,-753.27 747.3,-747.81"/>
</g>
<!-- storeCity -->
<g id="node3" class="node">
<title>storeCity</title>
<ellipse fill="none" stroke="black" cx="1055.28" cy="-998.08" rx="18" ry="18"/>
<text text-anchor="middle" x="1003.78" y="-1019.88" font-family="Times,serif" font-size="14.00">storeCity</text>
</g>
<!-- store&#45;&gt;storeCity -->
<g id="edge2" class="edge">
<title>store&#45;&gt;storeCity</title>
<path fill="none" stroke="black" d="M772.55,-1083.11C825.61,-1067.15 984.68,-1019.31 1037.8,-1003.34"/>
</g>
<!-- salesManager -->
<g id="node11" class="node">
<title>salesManager</title>
<ellipse fill="none" stroke="black" cx="978.82" cy="-1156.86" rx="18" ry="18"/>
<text text-anchor="middle" x="910.82" y="-1178.66" font-family="Times,serif" font-size="14.00">salesManager</text>
</g>
<!-- store&#45;&gt;salesManager -->
<g id="edge10" class="edge">
<title>store&#45;&gt;salesManager</title>
<path fill="none" stroke="black" d="M772.67,-1093.73C814.49,-1106.53 919.61,-1138.73 961.34,-1151.51"/>
</g>
<!-- salesDistrict -->
<g id="node12" class="node">
<title>salesDistrict</title>
<ellipse fill="none" stroke="black" cx="841.03" cy="-1266.74" rx="18" ry="18"/>
<text text-anchor="middle" x="777.53" y="-1288.54" font-family="Times,serif" font-size="14.00">salesDistrict</text>
</g>
<!-- store&#45;&gt;salesDistrict -->
<g id="edge11" class="edge">
<title>store&#45;&gt;salesDistrict</title>
<path fill="none" stroke="black" d="M763.05,-1104.81C779.41,-1138.8 816.77,-1216.37 833.12,-1250.32"/>
</g>
<!-- address -->
<g id="node13" class="node">
<title>address</title>
<polygon fill="none" stroke="transparent" points="705.71,-1323.96 632.71,-1323.96 632.71,-1287.96 705.71,-1287.96 705.71,-1323.96"/>
<polyline fill="none" stroke="black" points="632.71,-1287.96 705.71,-1287.96 "/>
<text text-anchor="middle" x="669.21" y="-1302.26" font-family="Times,serif" font-size="14.00">address</text>
</g>
<!-- store&#45;&gt;address -->
<g id="edge12" class="edge">
<title>store&#45;&gt;address</title>
<path fill="none" stroke="black" d="M748.38,-1105.43C732.48,-1145.7 692.74,-1246.36 676.4,-1287.75"/>
</g>
<!-- telephone -->
<g id="node14" class="node">
<title>telephone</title>
<polygon fill="none" stroke="transparent" points="540.89,-1284.74 453.89,-1284.74 453.89,-1248.74 540.89,-1248.74 540.89,-1284.74"/>
<polyline fill="none" stroke="black" points="453.89,-1248.74 540.89,-1248.74 "/>
<text text-anchor="middle" x="497.39" y="-1263.04" font-family="Times,serif" font-size="14.00">telephone</text>
</g>
<!-- store&#45;&gt;telephone -->
<g id="edge13" class="edge">
<title>store&#45;&gt;telephone</title>
<path fill="none" stroke="black" d="M740.15,-1098.71C697.93,-1127.94 577.5,-1211.3 523.8,-1248.47"/>
</g>
<!-- state -->
<g id="node4" class="node">
<title>state</title>
<ellipse fill="none" stroke="black" cx="1248.32" cy="-1042.14" rx="18" ry="18"/>
<text text-anchor="middle" x="1211.82" y="-1063.94" font-family="Times,serif" font-size="14.00">state</text>
</g>
<!-- storeCity&#45;&gt;state -->
<g id="edge3" class="edge">
<title>storeCity&#45;&gt;state</title>
<path fill="none" stroke="black" d="M1073.1,-1002.14C1109.87,-1010.54 1193.81,-1029.7 1230.55,-1038.08"/>
</g>
<!-- country -->
<g id="node5" class="node">
<title>country</title>
<ellipse fill="none" stroke="black" cx="1441.35" cy="-1086.2" rx="18" ry="18"/>
<text text-anchor="middle" x="1395.85" y="-1108" font-family="Times,serif" font-size="14.00">country</text>
</g>
<!-- state&#45;&gt;country -->
<g id="edge4" class="edge">
<title>state&#45;&gt;country</title>
<path fill="none" stroke="black" d="M1266.13,-1046.2C1302.91,-1054.6 1386.84,-1073.75 1423.58,-1082.14"/>
</g>
<!-- month -->
<g id="node7" class="node">
<title>month</title>
<ellipse fill="none" stroke="black" cx="359.61" cy="-1156.86" rx="18" ry="18"/>
<text text-anchor="middle" x="318.61" y="-1178.66" font-family="Times,serif" font-size="14.00">month</text>
</g>
<!-- date&#45;&gt;month -->
<g id="edge6" class="edge">
<title>date&#45;&gt;month</title>
<path fill="none" stroke="black" d="M463.71,-926.54C443.38,-971.52 387.36,-1095.46 367.07,-1140.35"/>
</g>
<!-- day -->
<g id="node15" class="node">
<title>day</title>
<ellipse fill="none" stroke="black" cx="283.14" cy="-998.08" rx="18" ry="18"/>
<text text-anchor="middle" x="252.14" y="-1019.88" font-family="Times,serif" font-size="14.00">day</text>
</g>
<!-- date&#45;&gt;day -->
<g id="edge14" class="edge">
<title>date&#45;&gt;day</title>
<path fill="none" stroke="black" d="M454.85,-917.62C419.28,-934.29 335.25,-973.66 299.6,-990.37"/>
</g>
<!-- week -->
<g id="node16" class="node">
<title>week</title>
<ellipse fill="none" stroke="black" cx="283.14" cy="-821.84" rx="18" ry="18"/>
<text text-anchor="middle" x="246.64" y="-843.64" font-family="Times,serif" font-size="14.00">week</text>
</g>
<!-- date&#45;&gt;week -->
<g id="edge15" class="edge">
<title>date&#45;&gt;week</title>
<path fill="none" stroke="black" d="M454.85,-902.29C419.28,-885.63 335.25,-846.26 299.6,-829.55"/>
</g>
<!-- holiday -->
<g id="node17" class="node">
<title>holiday</title>
<ellipse fill="none" stroke="black" cx="359.61" cy="-663.06" rx="18" ry="18"/>
<text text-anchor="middle" x="315.61" y="-684.86" font-family="Times,serif" font-size="14.00">holiday</text>
</g>
<!-- date&#45;&gt;holiday -->
<g id="edge16" class="edge">
<title>date&#45;&gt;holiday</title>
<path fill="none" stroke="black" d="M463.71,-893.38C443.38,-848.4 387.36,-724.46 367.07,-679.57"/>
</g>
<!-- quarter -->
<g id="node8" class="node">
<title>quarter</title>
<ellipse fill="none" stroke="black" cx="204.8" cy="-1280.31" rx="18" ry="18"/>
<text text-anchor="middle" x="159.3" y="-1302.11" font-family="Times,serif" font-size="14.00">quarter</text>
</g>
<!-- month&#45;&gt;quarter -->
<g id="edge7" class="edge">
<title>month&#45;&gt;quarter</title>
<path fill="none" stroke="black" d="M345.32,-1168.25C315.83,-1191.77 248.52,-1245.45 219.05,-1268.95"/>
</g>
<!-- year -->
<g id="node18" class="node">
<title>year</title>
<ellipse fill="none" stroke="black" cx="50" cy="-1403.76" rx="18" ry="18"/>
<text text-anchor="middle" x="16" y="-1425.56" font-family="Times,serif" font-size="14.00">year</text>
</g>
<!-- quarter&#45;&gt;year -->
<g id="edge17" class="edge">
<title>quarter&#45;&gt;year</title>
<path fill="none" stroke="black" d="M190.52,-1291.7C161.03,-1315.22 93.71,-1368.9 64.25,-1392.4"/>
</g>
<!-- type -->
<g id="node10" class="node">
<title>type</title>
<ellipse fill="none" stroke="black" cx="581.09" cy="-523.89" rx="18" ry="18"/>
<text text-anchor="middle" x="547.09" y="-545.69" font-family="Times,serif" font-size="14.00">type</text>
</g>
<!-- product&#45;&gt;type -->
<g id="edge9" class="edge">
<title>product&#45;&gt;type</title>
<path fill="none" stroke="black" d="M743.43,-717.62C711.73,-679.78 624.37,-575.54 592.73,-537.78"/>
</g>
<!-- diet -->
<g id="node19" class="node">
<title>diet</title>
<ellipse fill="none" stroke="black" cx="841.03" cy="-553.18" rx="18" ry="18"/>
<text text-anchor="middle" x="841.03" y="-549.48" font-family="Times,serif" font-size="14.00">diet</text>
<text text-anchor="middle" x="807.03" y="-574.98" font-family="Times,serif" font-size="14.00">year</text>
</g>
<!-- product&#45;&gt;diet -->
<g id="edge18" class="edge">
<title>product&#45;&gt;diet</title>
<path fill="none" stroke="black" d="M763.05,-715.1C778.07,-683.91 810.78,-615.98 828.7,-578.79"/>
<polyline fill="none" stroke="black" points="833.12,-569.6 828.78,-578.61 "/>
<path fill="none" stroke="black" d="M826.45,-571.93C823.78,-577.94 832.34,-582.28 835.45,-576.27"/>
</g>
<!-- weight -->
<g id="node20" class="node">
<title>weight</title>
<polygon fill="none" stroke="transparent" points="1011.32,-681.06 946.32,-681.06 946.32,-645.06 1011.32,-645.06 1011.32,-681.06"/>
<polyline fill="none" stroke="black" points="946.32,-645.06 1011.32,-645.06 "/>
<text text-anchor="middle" x="978.82" y="-659.36" font-family="Times,serif" font-size="14.00">weight</text>
</g>
<!-- product&#45;&gt;weight -->
<g id="edge19" class="edge">
<title>product&#45;&gt;weight</title>
<path fill="none" stroke="black" d="M772.67,-726.19C810.06,-714.74 898.05,-687.79 946.1,-673.08"/>
</g>
<!-- brand -->
<g id="node21" class="node">
<title>brand</title>
<ellipse fill="none" stroke="black" cx="1055.28" cy="-821.84" rx="18" ry="18"/>
<text text-anchor="middle" x="1015.78" y="-843.64" font-family="Times,serif" font-size="14.00">brand</text>
</g>
<!-- product&#45;&gt;brand -->
<g id="edge20" class="edge">
<title>product&#45;&gt;brand</title>
<path fill="none" stroke="black" d="M772.55,-736.81C825.61,-752.77 984.68,-800.61 1037.8,-816.58"/>
</g>
<!-- category -->
<g id="node23" class="node">
<title>category</title>
<ellipse fill="none" stroke="black" cx="411.48" cy="-374.78" rx="18" ry="18"/>
<text text-anchor="middle" x="361.98" y="-396.58" font-family="Times,serif" font-size="14.00">category</text>
</g>
<!-- type&#45;&gt;category -->
<g id="edge22" class="edge">
<title>type&#45;&gt;category</title>
<path fill="none" stroke="black" d="M567.5,-511.94C535.74,-484.02 456.96,-414.76 425.14,-386.79"/>
</g>
<!-- marketingGroup -->
<g id="node26" class="node">
<title>marketingGroup</title>
<ellipse fill="none" stroke="black" cx="669.21" cy="-315.96" rx="18" ry="18"/>
<text text-anchor="middle" x="592.21" y="-337.76" font-family="Times,serif" font-size="14.00">marketingGroup</text>
</g>
<!-- type&#45;&gt;marketingGroup -->
<g id="edge25" class="edge">
<title>type&#45;&gt;marketingGroup</title>
<path fill="none" stroke="black" d="M588.15,-507.22C604.65,-468.29 645.58,-371.71 662.11,-332.7"/>
</g>
<!-- brandCity -->
<g id="node22" class="node">
<title>brandCity</title>
<ellipse fill="none" stroke="black" cx="1248.32" cy="-777.78" rx="18" ry="18"/>
<text text-anchor="middle" x="1194.32" y="-799.58" font-family="Times,serif" font-size="14.00">brandCity</text>
</g>
<!-- brand&#45;&gt;brandCity -->
<g id="edge21" class="edge">
<title>brand&#45;&gt;brandCity</title>
<path fill="none" stroke="black" d="M1073.1,-817.77C1109.87,-809.38 1193.81,-790.22 1230.55,-781.84"/>
</g>
<!-- department -->
<g id="node24" class="node">
<title>department</title>
<ellipse fill="none" stroke="black" cx="325.57" cy="-196.39" rx="18" ry="18"/>
<text text-anchor="middle" x="265.07" y="-218.19" font-family="Times,serif" font-size="14.00">department</text>
</g>
<!-- category&#45;&gt;department -->
<g id="edge23" class="edge">
<title>category&#45;&gt;department</title>
<path fill="none" stroke="black" d="M403.56,-358.32C387.19,-324.34 349.83,-246.77 333.48,-212.81"/>
</g>
<!-- departmentHead -->
<g id="node25" class="node">
<title>departmentHead</title>
<polygon fill="none" stroke="transparent" points="308.67,-36 170.67,-36 170.67,0 308.67,0 308.67,-36"/>
<polyline fill="none" stroke="black" points="170.67,0 308.67,0 "/>
<text text-anchor="middle" x="239.67" y="-14.3" font-family="Times,serif" font-size="14.00">departmentHead</text>
</g>
<!-- department&#45;&gt;departmentHead -->
<g id="edge24" class="edge">
<title>department&#45;&gt;departmentHead</title>
<path fill="none" stroke="black" d="M317.65,-179.93C301.53,-146.46 265.06,-70.73 248.34,-36"/>
</g>
<!-- director -->
<g id="node27" class="node">
<title>director</title>
<polygon fill="none" stroke="transparent" points="706.21,-135.96 632.21,-135.96 632.21,-99.96 706.21,-99.96 706.21,-135.96"/>
<polyline fill="none" stroke="black" points="632.21,-99.96 706.21,-99.96 "/>
<text text-anchor="middle" x="669.21" y="-114.26" font-family="Times,serif" font-size="14.00">director</text>
</g>
<!-- marketingGroup&#45;&gt;director -->
<g id="edge26" class="edge">
<title>marketingGroup&#45;&gt;director</title>
<path fill="none" stroke="black" d="M669.21,-297.69C669.21,-259.97 669.21,-173.87 669.21,-136.19"/>
</g>
</g>
</svg>
