<?xml version="1.0" encoding="UTF-8" standalone="no"?>
<!DOCTYPE svg PUBLIC "-//W3C//DTD SVG 1.1//EN"
 "http://www.w3.org/Graphics/SVG/1.1/DTD/svg11.dtd">
<!-- Generated by graphviz version 2.43.0 (0)
 -->
<!-- Title: G Pages: 1 -->
<svg width="1494pt" height="1180pt"
 viewBox="0.00 0.00 1493.91 1179.58" xmlns="http://www.w3.org/2000/svg" xmlns:xlink="http://www.w3.org/1999/xlink">
<g id="graph0" class="graph" transform="scale(1 1) rotate(0) translate(4 1175.58)">
<title>G</title>
<polygon fill="white" stroke="transparent" points="-4,4 -4,-1175.58 1489.91,-1175.58 1489.91,4 -4,4"/>
<!-- factTable -->
<g id="node1" class="node">
<title>factTable</title>
<polygon fill="lightblue" stroke="transparent" points="641.41,-678.47 641.41,-735.47 749.41,-735.47 749.41,-678.47 641.41,-678.47"/>
<polygon fill="none" stroke="black" points="641.41,-678.47 641.41,-735.47 749.41,-735.47 749.41,-678.47 641.41,-678.47"/>
<text text-anchor="start" x="662.41" y="-703.27" font-family="Times,serif" font-size="14.00">factTable</text>
<polygon fill="none" stroke="black" points="641.41,-621.47 641.41,-678.47 749.41,-678.47 749.41,-621.47 641.41,-621.47"/>
<text text-anchor="start" x="680.41" y="-646.27" font-family="Times,serif" font-size="14.00">att1</text>
<polygon fill="none" stroke="black" points="641.41,-564.47 641.41,-621.47 749.41,-621.47 749.41,-564.47 641.41,-564.47"/>
<text text-anchor="start" x="680.41" y="-589.27" font-family="Times,serif" font-size="14.00">att2</text>
<polygon fill="none" stroke="black" points="641.41,-507.47 641.41,-564.47 749.41,-564.47 749.41,-507.47 641.41,-507.47"/>
<text text-anchor="start" x="680.41" y="-532.27" font-family="Times,serif" font-size="14.00">att3</text>
<polygon fill="none" stroke="black" points="641.41,-450.47 641.41,-507.47 749.41,-507.47 749.41,-450.47 641.41,-450.47"/>
<text text-anchor="start" x="680.41" y="-475.27" font-family="Times,serif" font-size="14.00">att4</text>
</g>
<!-- dimension1 -->
<g id="node2" class="node">
<title>dimension1</title>
<ellipse fill="none" stroke="black" cx="927.91" cy="-593.47" rx="18" ry="18"/>
<text text-anchor="middle" x="868.41" y="-615.27" font-family="Times,serif" font-size="14.00">dimension1</text>
</g>
<!-- factTable&#45;&gt;dimension1 -->
<g id="edge1" class="edge">
<title>factTable&#45;&gt;dimension1</title>
<path fill="none" stroke="black" d="M749.63,-593.47C801.16,-593.47 875.68,-593.47 909.72,-593.47"/>
</g>
<!-- dimension7 -->
<g id="node8" class="node">
<title>dimension7</title>
<ellipse fill="none" stroke="black" cx="262.19" cy="-1023.62" rx="18" ry="18"/>
<text text-anchor="middle" x="202.69" y="-1045.42" font-family="Times,serif" font-size="14.00">dimension7</text>
</g>
<!-- factTable&#45;&gt;dimension7 -->
<g id="edge7" class="edge">
<title>factTable&#45;&gt;dimension7</title>
<path fill="none" stroke="black" d="M640.98,-647.52C540.08,-747.7 329.32,-956.97 275.12,-1010.79"/>
</g>
<!-- dimension8 -->
<g id="node9" class="node">
<title>dimension8</title>
<ellipse fill="none" stroke="black" cx="417.16" cy="-111.53" rx="18" ry="18"/>
<text text-anchor="middle" x="357.66" y="-133.33" font-family="Times,serif" font-size="14.00">dimension8</text>
</g>
<!-- factTable&#45;&gt;dimension8 -->
<g id="edge8" class="edge">
<title>factTable&#45;&gt;dimension8</title>
<path fill="none" stroke="black" d="M641.27,-499.69C572.49,-380.57 458.81,-183.67 426.18,-127.15"/>
</g>
<!-- dimension2 -->
<g id="node3" class="node">
<title>dimension2</title>
<ellipse fill="none" stroke="black" cx="1359.91" cy="-593.47" rx="18" ry="18"/>
<text text-anchor="middle" x="1300.41" y="-615.27" font-family="Times,serif" font-size="14.00">dimension2</text>
</g>
<!-- dimension1&#45;&gt;dimension2 -->
<g id="edge2" class="edge">
<title>dimension1&#45;&gt;dimension2</title>
<path fill="none" stroke="black" d="M945.92,-593.47C1016.19,-593.47 1271.43,-593.47 1341.82,-593.47"/>
</g>
<!-- dimension3 -->
<g id="node4" class="node">
<title>dimension3</title>
<ellipse fill="none" stroke="black" cx="1359.91" cy="-377.47" rx="18" ry="18"/>
<text text-anchor="middle" x="1300.41" y="-399.27" font-family="Times,serif" font-size="14.00">dimension3</text>
</g>
<!-- dimension2&#45;&gt;dimension3 -->
<g id="edge3" class="edge">
<title>dimension2&#45;&gt;dimension3</title>
<path fill="none" stroke="black" d="M1359.91,-575.43C1359.91,-534.77 1359.91,-436.37 1359.91,-395.62"/>
</g>
<!-- dimension4 -->
<g id="node5" class="node">
<title>dimension4</title>
<ellipse fill="none" stroke="black" cx="1359.91" cy="-809.47" rx="18" ry="18"/>
<text text-anchor="middle" x="1300.41" y="-831.27" font-family="Times,serif" font-size="14.00">dimension4</text>
</g>
<!-- dimension2&#45;&gt;dimension4 -->
<g id="edge4" class="edge">
<title>dimension2&#45;&gt;dimension4</title>
<path fill="none" stroke="black" d="M1359.91,-611.52C1359.91,-652.18 1359.91,-750.58 1359.91,-791.33"/>
</g>
<!-- dimension5 -->
<g id="node6" class="node">
<title>dimension5</title>
<ellipse fill="none" stroke="black" cx="1467.91" cy="-809.47" rx="18" ry="18"/>
<text text-anchor="middle" x="1408.41" y="-831.27" font-family="Times,serif" font-size="14.00">dimension5</text>
</g>
<!-- dimension4&#45;&gt;dimension5 -->
<g id="edge5" class="edge">
<title>dimension4&#45;&gt;dimension5</title>
<path fill="none" stroke="black" d="M1378.23,-809.47C1398.21,-809.47 1429.99,-809.47 1449.86,-809.47"/>
</g>
<!-- dimension6 -->
<g id="node7" class="node">
<title>dimension6</title>
<ellipse fill="none" stroke="black" cx="1251.91" cy="-809.47" rx="18" ry="18"/>
<text text-anchor="middle" x="1192.41" y="-831.27" font-family="Times,serif" font-size="14.00">dimension6</text>
</g>
<!-- dimension4&#45;&gt;dimension6 -->
<g id="edge6" class="edge">
<title>dimension4&#45;&gt;dimension6</title>
<path fill="none" stroke="black" d="M1341.59,-809.47C1321.61,-809.47 1289.84,-809.47 1269.96,-809.47"/>
</g>
<!-- dimension9 -->
<g id="node10" class="node">
<title>dimension9</title>
<ellipse fill="none" stroke="black" cx="376.33" cy="-1138.58" rx="18" ry="18"/>
<text text-anchor="middle" x="316.83" y="-1160.38" font-family="Times,serif" font-size="14.00">dimension9</text>
</g>
<!-- dimension7&#45;&gt;dimension9 -->
<g id="edge9" class="edge">
<title>dimension7&#45;&gt;dimension9</title>
<path fill="none" stroke="black" d="M275.28,-1036.81C297.3,-1058.99 341.48,-1103.48 363.39,-1125.55"/>
</g>
<!-- dimension10 -->
<g id="node11" class="node">
<title>dimension10</title>
<ellipse fill="none" stroke="black" cx="186.1" cy="-946.99" rx="18" ry="18"/>
<text text-anchor="middle" x="122.1" y="-968.79" font-family="Times,serif" font-size="14.00">dimension10</text>
</g>
<!-- dimension7&#45;&gt;dimension10 -->
<g id="edge10" class="edge">
<title>dimension7&#45;&gt;dimension10</title>
<path fill="none" stroke="black" d="M249.28,-1010.62C235.2,-996.45 212.82,-973.9 198.81,-959.79"/>
</g>
<!-- dimension12 -->
<g id="node13" class="node">
<title>dimension12</title>
<ellipse fill="none" stroke="black" cx="363.16" cy="-18" rx="18" ry="18"/>
<text text-anchor="middle" x="299.16" y="-39.8" font-family="Times,serif" font-size="14.00">dimension12</text>
</g>
<!-- dimension8&#45;&gt;dimension12 -->
<g id="edge12" class="edge">
<title>dimension8&#45;&gt;dimension12</title>
<path fill="none" stroke="black" d="M408,-95.66C398.01,-78.36 382.12,-50.84 372.19,-33.63"/>
</g>
<!-- dimension11 -->
<g id="node12" class="node">
<title>dimension11</title>
<ellipse fill="none" stroke="black" cx="110" cy="-870.35" rx="18" ry="18"/>
<text text-anchor="middle" x="46" y="-892.15" font-family="Times,serif" font-size="14.00">dimension11</text>
</g>
<!-- dimension10&#45;&gt;dimension11 -->
<g id="edge11" class="edge">
<title>dimension10&#45;&gt;dimension11</title>
<path fill="none" stroke="black" d="M173.19,-933.98C159.11,-919.81 136.72,-897.26 122.72,-883.16"/>
</g>
</g>
</svg>
