<?xml version="1.0" encoding="UTF-8" standalone="no"?>
<!DOCTYPE svg PUBLIC "-//W3C//DTD SVG 1.1//EN"
 "http://www.w3.org/Graphics/SVG/1.1/DTD/svg11.dtd">
<!-- Generated by graphviz version 2.43.0 (0)
 -->
<!-- Title: G Pages: 1 -->
<svg width="420pt" height="266pt"
 viewBox="0.00 0.00 420.00 266.00" xmlns="http://www.w3.org/2000/svg" xmlns:xlink="http://www.w3.org/1999/xlink">
<g id="graph0" class="graph" transform="scale(1 1) rotate(0) translate(4 262)">
<title>G</title>
<polygon fill="white" stroke="transparent" points="-4,4 -4,-262 416,-262 416,4 -4,4"/>
<!-- factDT -->
<g id="node1" class="node">
<title>factDT</title>
<polygon fill="green" stroke="transparent" points="77,-4 77,-232 163,-232 163,-4 77,-4"/>
<polygon fill="red" stroke="transparent" points="77,-175 77,-232 163,-232 163,-175 77,-175"/>
<polygon fill="none" stroke="black" points="77,-175 77,-232 163,-232 163,-175 77,-175"/>
<text text-anchor="start" x="98" y="-200.8" font-family="Times,serif" font-size="14.00"> </text>
<text text-anchor="start" x="103" y="-200.8" font-family="Times,serif" text-decoration="underline" font-size="14.00">key1</text>
<text text-anchor="start" x="137" y="-200.8" font-family="Times,serif" font-size="14.00"> </text>
<polygon fill="blue" stroke="transparent" points="77,-118 77,-175 163,-175 163,-118 77,-118"/>
<polygon fill="none" stroke="black" points="77,-118 77,-175 163,-175 163,-118 77,-118"/>
<text text-anchor="start" x="98" y="-143.8" font-family="Times,serif" font-size="14.00"> </text>
<text text-anchor="start" x="103" y="-143.8" font-family="Times,serif" text-decoration="underline" font-size="14.00">key2</text>
<text text-anchor="start" x="137" y="-143.8" font-family="Times,serif" font-size="14.00"> </text>
<polygon fill="none" stroke="black" points="77,-61 77,-118 163,-118 163,-61 77,-61"/>
<text text-anchor="start" x="105" y="-85.8" font-family="Times,serif" font-size="14.00">att1</text>
<polygon fill="none" stroke="black" points="77,-4 77,-61 163,-61 163,-4 77,-4"/>
<text text-anchor="start" x="105" y="-28.8" font-family="Times,serif" font-size="14.00">att2</text>
<text text-anchor="start" x="0" y="-242" font-family="Times,serif" font-size="20.00">factDT</text>
</g>
<!-- dim2DT -->
<g id="node2" class="node">
<title>dim2DT</title>
<polygon fill="blue" stroke="transparent" points="318,-89.5 318,-146.5 404,-146.5 404,-89.5 318,-89.5"/>
<polygon fill="red" stroke="transparent" points="318,-89 318,-146 404,-146 404,-89 318,-89"/>
<polygon fill="none" stroke="black" points="318,-89 318,-146 404,-146 404,-89 318,-89"/>
<text text-anchor="start" x="339" y="-114.8" font-family="Times,serif" font-size="14.00"> </text>
<text text-anchor="start" x="344" y="-114.8" font-family="Times,serif" text-decoration="underline" font-size="14.00">key2</text>
<text text-anchor="start" x="378" y="-114.8" font-family="Times,serif" font-size="14.00"> </text>
<text text-anchor="start" x="229" y="-156.5" font-family="Times,serif" font-size="20.00">dim2DT</text>
</g>
<!-- factDT&#45;&gt;dim2DT -->
<g id="edge1" class="edge">
<title>factDT:key2&#45;&gt;dim2DT:key2</title>
<path fill="none" stroke="black" d="M163,-147C163,-147 259.26,-132.41 317.55,-123.58"/>
</g>
</g>
</svg>
