<?xml version="1.0" encoding="UTF-8" standalone="no"?>
<!DOCTYPE svg PUBLIC "-//W3C//DTD SVG 1.1//EN"
 "http://www.w3.org/Graphics/SVG/1.1/DTD/svg11.dtd">
<!-- Generated by graphviz version 2.43.0 (0)
 -->
<!-- Title: G Pages: 1 -->
<svg width="1179pt" height="1160pt"
 viewBox="0.00 0.00 1179.50 1159.69" xmlns="http://www.w3.org/2000/svg" xmlns:xlink="http://www.w3.org/1999/xlink">
<g id="graph0" class="graph" transform="scale(1 1) rotate(0) translate(4 1155.69)">
<title>G</title>
<polygon fill="white" stroke="transparent" points="-4,4 -4,-1155.69 1175.5,-1155.69 1175.5,4 -4,4"/>
<!-- SALE -->
<g id="node1" class="node">
<title>SALE</title>
<polygon fill="lightblue" stroke="transparent" points="438.1,-810.29 438.1,-867.29 630.1,-867.29 630.1,-810.29 438.1,-810.29"/>
<polygon fill="none" stroke="black" points="438.1,-810.29 438.1,-867.29 630.1,-867.29 630.1,-810.29 438.1,-810.29"/>
<text text-anchor="start" x="514.1" y="-835.09" font-family="Times,serif" font-size="14.00">SALE</text>
<polygon fill="none" stroke="black" points="438.1,-753.29 438.1,-810.29 630.1,-810.29 630.1,-753.29 438.1,-753.29"/>
<text text-anchor="start" x="503.6" y="-778.09" font-family="Times,serif" font-size="14.00">quantity</text>
<polygon fill="none" stroke="black" points="438.1,-696.29 438.1,-753.29 630.1,-753.29 630.1,-696.29 438.1,-696.29"/>
<text text-anchor="start" x="505.1" y="-721.09" font-family="Times,serif" font-size="14.00">receipts</text>
<polygon fill="none" stroke="black" points="438.1,-639.29 438.1,-696.29 630.1,-696.29 630.1,-639.29 438.1,-639.29"/>
<text text-anchor="start" x="459.1" y="-664.09" font-family="Times,serif" font-size="14.00">numberOfCustomers</text>
<polygon fill="none" stroke="black" points="438.1,-582.29 438.1,-639.29 630.1,-639.29 630.1,-582.29 438.1,-582.29"/>
<text text-anchor="start" x="501.1" y="-607.09" font-family="Times,serif" font-size="14.00">unitPrice</text>
</g>
<!-- store -->
<g id="node2" class="node">
<title>store</title>
<ellipse fill="none" stroke="black" cx="615.52" cy="-893.81" rx="18" ry="18"/>
<text text-anchor="middle" x="579.02" y="-915.61" font-family="Times,serif" font-size="14.00">store</text>
</g>
<!-- SALE&#45;&gt;store -->
<g id="edge1" class="edge">
<title>SALE&#45;&gt;store</title>
<path fill="none" stroke="black" d="M602.98,-867.85C604.68,-871.38 606.26,-874.64 607.68,-877.58"/>
</g>
<!-- date -->
<g id="node6" class="node">
<title>date</title>
<ellipse fill="none" stroke="black" cx="383.17" cy="-725.26" rx="18" ry="18"/>
<text text-anchor="middle" x="349.17" y="-747.06" font-family="Times,serif" font-size="14.00">date</text>
</g>
<!-- SALE&#45;&gt;date -->
<g id="edge5" class="edge">
<title>SALE&#45;&gt;date</title>
<path fill="none" stroke="black" d="M438.09,-725.27C424.13,-725.27 411.19,-725.27 401.38,-725.26"/>
</g>
<!-- product -->
<g id="node9" class="node">
<title>product</title>
<ellipse fill="none" stroke="black" cx="615.45" cy="-556.77" rx="18" ry="18"/>
<text text-anchor="middle" x="569.45" y="-542.57" font-family="Times,serif" font-size="14.00">product</text>
</g>
<!-- SALE&#45;&gt;product -->
<g id="edge8" class="edge">
<title>SALE&#45;&gt;product</title>
<path fill="none" stroke="black" d="M602.92,-582.74C604.63,-579.2 606.2,-575.94 607.62,-573"/>
</g>
<!-- storeCity -->
<g id="node3" class="node">
<title>storeCity</title>
<ellipse fill="none" stroke="black" cx="847.7" cy="-799.55" rx="18" ry="18"/>
<text text-anchor="middle" x="796.2" y="-821.35" font-family="Times,serif" font-size="14.00">storeCity</text>
</g>
<!-- store&#45;&gt;storeCity -->
<g id="edge2" class="edge">
<title>store&#45;&gt;storeCity</title>
<path fill="none" stroke="black" d="M632.22,-887.03C674.95,-869.68 787.93,-823.82 830.84,-806.4"/>
</g>
<!-- salesManager -->
<g id="node11" class="node">
<title>salesManager</title>
<ellipse fill="none" stroke="black" cx="789.03" cy="-934.64" rx="18" ry="18"/>
<text text-anchor="middle" x="721.03" y="-956.44" font-family="Times,serif" font-size="14.00">salesManager</text>
</g>
<!-- store&#45;&gt;salesManager -->
<g id="edge10" class="edge">
<title>store&#45;&gt;salesManager</title>
<path fill="none" stroke="black" d="M633.11,-897.95C666.37,-905.77 738.1,-922.66 771.39,-930.49"/>
</g>
<!-- salesDistrict -->
<g id="node12" class="node">
<title>salesDistrict</title>
<ellipse fill="none" stroke="black" cx="680.93" cy="-1026.01" rx="18" ry="18"/>
<text text-anchor="middle" x="617.43" y="-1011.81" font-family="Times,serif" font-size="14.00">salesDistrict</text>
</g>
<!-- store&#45;&gt;salesDistrict -->
<g id="edge11" class="edge">
<title>store&#45;&gt;salesDistrict</title>
<path fill="none" stroke="black" d="M623.54,-910.02C636.09,-935.39 660.25,-984.21 672.84,-1009.66"/>
</g>
<!-- address -->
<g id="node13" class="node">
<title>address</title>
<polygon fill="none" stroke="transparent" points="580.38,-1073.46 507.38,-1073.46 507.38,-1037.46 580.38,-1037.46 580.38,-1073.46"/>
<polyline fill="none" stroke="black" points="507.38,-1037.46 580.38,-1037.46 "/>
<text text-anchor="middle" x="543.88" y="-1051.76" font-family="Times,serif" font-size="14.00">address</text>
</g>
<!-- store&#45;&gt;address -->
<g id="edge12" class="edge">
<title>store&#45;&gt;address</title>
<path fill="none" stroke="black" d="M608.12,-910.5C594.61,-940.99 566.03,-1005.47 552,-1037.14"/>
</g>
<!-- telephone -->
<g id="node14" class="node">
<title>telephone</title>
<polygon fill="none" stroke="transparent" points="449.66,-1034.14 362.66,-1034.14 362.66,-998.14 449.66,-998.14 449.66,-1034.14"/>
<polyline fill="none" stroke="black" points="362.66,-998.14 449.66,-998.14 "/>
<text text-anchor="middle" x="406.16" y="-1012.44" font-family="Times,serif" font-size="14.00">telephone</text>
</g>
<!-- store&#45;&gt;telephone -->
<g id="edge13" class="edge">
<title>store&#45;&gt;telephone</title>
<path fill="none" stroke="black" d="M599.78,-903C565.26,-923.17 482.36,-971.61 437.04,-998.09"/>
</g>
<!-- state -->
<g id="node4" class="node">
<title>state</title>
<ellipse fill="none" stroke="black" cx="1000.4" cy="-833.9" rx="18" ry="18"/>
<text text-anchor="middle" x="963.9" y="-855.7" font-family="Times,serif" font-size="14.00">state</text>
</g>
<!-- storeCity&#45;&gt;state -->
<g id="edge3" class="edge">
<title>storeCity&#45;&gt;state</title>
<path fill="none" stroke="black" d="M865.51,-803.56C894.94,-810.18 953.35,-823.32 982.7,-829.92"/>
</g>
<!-- country -->
<g id="node5" class="node">
<title>country</title>
<ellipse fill="none" stroke="black" cx="1153.5" cy="-867.68" rx="18" ry="18"/>
<text text-anchor="middle" x="1108" y="-889.48" font-family="Times,serif" font-size="14.00">country</text>
</g>
<!-- state&#45;&gt;country -->
<g id="edge4" class="edge">
<title>state&#45;&gt;country</title>
<path fill="none" stroke="black" d="M1018.26,-837.84C1047.76,-844.35 1106.32,-857.27 1135.75,-863.77"/>
</g>
<!-- month -->
<g id="node7" class="node">
<title>month</title>
<ellipse fill="none" stroke="black" cx="295.55" cy="-923.31" rx="18" ry="18"/>
<text text-anchor="middle" x="254.55" y="-945.11" font-family="Times,serif" font-size="14.00">month</text>
</g>
<!-- date&#45;&gt;month -->
<g id="edge6" class="edge">
<title>date&#45;&gt;month</title>
<path fill="none" stroke="black" d="M375.85,-741.8C359.36,-779.08 319.44,-869.3 302.91,-906.67"/>
</g>
<!-- day -->
<g id="node15" class="node">
<title>day</title>
<ellipse fill="none" stroke="black" cx="234.88" cy="-795.3" rx="18" ry="18"/>
<text text-anchor="middle" x="203.88" y="-817.1" font-family="Times,serif" font-size="14.00">day</text>
</g>
<!-- date&#45;&gt;day -->
<g id="edge14" class="edge">
<title>date&#45;&gt;day</title>
<path fill="none" stroke="black" d="M366.73,-733.02C338.23,-746.48 279.94,-774.01 251.39,-787.5"/>
</g>
<!-- week -->
<g id="node16" class="node">
<title>week</title>
<ellipse fill="none" stroke="black" cx="234.89" cy="-653.87" rx="18" ry="18"/>
<text text-anchor="middle" x="198.39" y="-675.67" font-family="Times,serif" font-size="14.00">week</text>
</g>
<!-- date&#45;&gt;week -->
<g id="edge15" class="edge">
<title>date&#45;&gt;week</title>
<path fill="none" stroke="black" d="M366.73,-717.35C338.23,-703.62 279.95,-675.56 251.39,-661.82"/>
</g>
<!-- holiday -->
<g id="node17" class="node">
<title>holiday</title>
<ellipse fill="none" stroke="black" cx="296.47" cy="-525.36" rx="18" ry="18"/>
<text text-anchor="middle" x="252.47" y="-547.16" font-family="Times,serif" font-size="14.00">holiday</text>
</g>
<!-- date&#45;&gt;holiday -->
<g id="edge16" class="edge">
<title>date&#45;&gt;holiday</title>
<path fill="none" stroke="black" d="M375.93,-708.56C359.61,-670.93 320.11,-579.87 303.76,-542.15"/>
</g>
<!-- quarter -->
<g id="node8" class="node">
<title>quarter</title>
<ellipse fill="none" stroke="black" cx="172.77" cy="-1020.19" rx="18" ry="18"/>
<text text-anchor="middle" x="127.27" y="-1041.99" font-family="Times,serif" font-size="14.00">quarter</text>
</g>
<!-- month&#45;&gt;quarter -->
<g id="edge7" class="edge">
<title>month&#45;&gt;quarter</title>
<path fill="none" stroke="black" d="M280.98,-934.8C257.22,-953.55 210.43,-990.47 186.94,-1009.01"/>
</g>
<!-- year -->
<g id="node18" class="node">
<title>year</title>
<ellipse fill="none" stroke="black" cx="50" cy="-1118.69" rx="18" ry="18"/>
<text text-anchor="middle" x="16" y="-1140.49" font-family="Times,serif" font-size="14.00">year</text>
</g>
<!-- quarter&#45;&gt;year -->
<g id="edge17" class="edge">
<title>quarter&#45;&gt;year</title>
<path fill="none" stroke="black" d="M158.69,-1031.49C135.13,-1050.39 87.99,-1088.21 64.3,-1107.22"/>
</g>
<!-- type -->
<g id="node10" class="node">
<title>type</title>
<ellipse fill="none" stroke="black" cx="473.3" cy="-409.85" rx="18" ry="18"/>
<text text-anchor="middle" x="439.3" y="-431.65" font-family="Times,serif" font-size="14.00">type</text>
</g>
<!-- product&#45;&gt;type -->
<g id="edge9" class="edge">
<title>product&#45;&gt;type</title>
<path fill="none" stroke="black" d="M602.84,-543.73C575.93,-515.92 513.16,-451.04 486.09,-423.07"/>
</g>
<!-- diet -->
<g id="node19" class="node">
<title>diet</title>
<ellipse fill="none" stroke="black" cx="681" cy="-427.22" rx="18" ry="18"/>
<text text-anchor="middle" x="681" y="-423.52" font-family="Times,serif" font-size="14.00">diet</text>
<text text-anchor="middle" x="647" y="-449.02" font-family="Times,serif" font-size="14.00">year</text>
</g>
<!-- product&#45;&gt;diet -->
<g id="edge18" class="edge">
<title>product&#45;&gt;diet</title>
<path fill="none" stroke="black" d="M623.62,-540.63C634.81,-518.52 655.01,-478.59 668.21,-452.49"/>
<polyline fill="none" stroke="black" points="672.73,-443.57 668.21,-452.49 "/>
<path fill="none" stroke="black" d="M666.01,-445.77C663.22,-451.72 671.7,-456.23 674.93,-450.28"/>
</g>
<!-- weight -->
<g id="node20" class="node">
<title>weight</title>
<polygon fill="none" stroke="transparent" points="821.54,-533.43 756.54,-533.43 756.54,-497.43 821.54,-497.43 821.54,-533.43"/>
<polyline fill="none" stroke="black" points="756.54,-497.43 821.54,-497.43 "/>
<text text-anchor="middle" x="789.04" y="-511.73" font-family="Times,serif" font-size="14.00">weight</text>
</g>
<!-- product&#45;&gt;weight -->
<g id="edge19" class="edge">
<title>product&#45;&gt;weight</title>
<path fill="none" stroke="black" d="M633.05,-552.58C661.93,-545.7 719.8,-531.92 756.36,-523.21"/>
</g>
<!-- brand -->
<g id="node21" class="node">
<title>brand</title>
<ellipse fill="none" stroke="black" cx="847.72" cy="-650.52" rx="18" ry="18"/>
<text text-anchor="middle" x="808.22" y="-672.32" font-family="Times,serif" font-size="14.00">brand</text>
</g>
<!-- product&#45;&gt;brand -->
<g id="edge20" class="edge">
<title>product&#45;&gt;brand</title>
<path fill="none" stroke="black" d="M632.16,-563.52C674.91,-580.77 787.93,-626.39 830.86,-643.71"/>
</g>
<!-- category -->
<g id="node23" class="node">
<title>category</title>
<ellipse fill="none" stroke="black" cx="336.7" cy="-297.21" rx="18" ry="18"/>
<text text-anchor="middle" x="287.2" y="-319.01" font-family="Times,serif" font-size="14.00">category</text>
</g>
<!-- type&#45;&gt;category -->
<g id="edge22" class="edge">
<title>type&#45;&gt;category</title>
<path fill="none" stroke="black" d="M459.2,-398.22C433.02,-376.63 377.21,-330.61 350.94,-308.94"/>
</g>
<!-- marketingGroup -->
<g id="node26" class="node">
<title>marketingGroup</title>
<ellipse fill="none" stroke="black" cx="541.12" cy="-248.87" rx="18" ry="18"/>
<text text-anchor="middle" x="464.12" y="-270.67" font-family="Times,serif" font-size="14.00">marketingGroup</text>
</g>
<!-- type&#45;&gt;marketingGroup -->
<g id="edge25" class="edge">
<title>type&#45;&gt;marketingGroup</title>
<path fill="none" stroke="black" d="M480.3,-393.22C493.3,-362.38 521.01,-296.6 534.06,-265.64"/>
</g>
<!-- brandCity -->
<g id="node22" class="node">
<title>brandCity</title>
<ellipse fill="none" stroke="black" cx="1000.4" cy="-617.31" rx="18" ry="18"/>
<text text-anchor="middle" x="946.4" y="-639.11" font-family="Times,serif" font-size="14.00">brandCity</text>
</g>
<!-- brand&#45;&gt;brandCity -->
<g id="edge21" class="edge">
<title>brand&#45;&gt;brandCity</title>
<path fill="none" stroke="black" d="M865.54,-646.64C894.96,-640.24 953.35,-627.54 982.7,-621.16"/>
</g>
<!-- department -->
<g id="node24" class="node">
<title>department</title>
<ellipse fill="none" stroke="black" cx="268.55" cy="-159.18" rx="18" ry="18"/>
<text text-anchor="middle" x="208.05" y="-180.98" font-family="Times,serif" font-size="14.00">department</text>
</g>
<!-- category&#45;&gt;department -->
<g id="edge23" class="edge">
<title>category&#45;&gt;department</title>
<path fill="none" stroke="black" d="M328.62,-280.83C315.5,-254.27 289.73,-202.09 276.62,-175.54"/>
</g>
<!-- departmentHead -->
<g id="node25" class="node">
<title>departmentHead</title>
<polygon fill="none" stroke="transparent" points="269.41,-36 131.41,-36 131.41,0 269.41,0 269.41,-36"/>
<polyline fill="none" stroke="black" points="131.41,0 269.41,0 "/>
<text text-anchor="middle" x="200.41" y="-14.3" font-family="Times,serif" font-size="14.00">departmentHead</text>
</g>
<!-- department&#45;&gt;departmentHead -->
<g id="edge24" class="edge">
<title>department&#45;&gt;departmentHead</title>
<path fill="none" stroke="black" d="M260.6,-142.71C247.75,-116.09 222.51,-63.8 209.17,-36.14"/>
</g>
<!-- director -->
<g id="node27" class="node">
<title>director</title>
<polygon fill="none" stroke="transparent" points="578.1,-112.81 504.1,-112.81 504.1,-76.81 578.1,-76.81 578.1,-112.81"/>
<polyline fill="none" stroke="black" points="504.1,-76.81 578.1,-76.81 "/>
<text text-anchor="middle" x="541.1" y="-91.11" font-family="Times,serif" font-size="14.00">director</text>
</g>
<!-- marketingGroup&#45;&gt;director -->
<g id="edge26" class="edge">
<title>marketingGroup&#45;&gt;director</title>
<path fill="none" stroke="black" d="M541.12,-230.59C541.12,-200.94 541.11,-142.7 541.1,-113.06"/>
</g>
</g>
</svg>
