<?xml version="1.0" encoding="UTF-8" standalone="no"?>
<!DOCTYPE svg PUBLIC "-//W3C//DTD SVG 1.1//EN"
 "http://www.w3.org/Graphics/SVG/1.1/DTD/svg11.dtd">
<!-- Generated by graphviz version 2.43.0 (0)
 -->
<!-- Title: G Pages: 1 -->
<svg width="779pt" height="973pt"
 viewBox="0.00 0.00 778.81 973.33" xmlns="http://www.w3.org/2000/svg" xmlns:xlink="http://www.w3.org/1999/xlink">
<g id="graph0" class="graph" transform="scale(1 1) rotate(0) translate(4 969.33)">
<title>G</title>
<polygon fill="white" stroke="transparent" points="-4,4 -4,-969.33 774.81,-969.33 774.81,4 -4,4"/>
<!-- SaleFT -->
<g id="node1" class="node">
<title>SaleFT</title>
<polygon fill="lime" stroke="transparent" points="283.81,-329.17 283.81,-614.17 408.81,-614.17 408.81,-329.17 283.81,-329.17"/>
<polygon fill="yellow" stroke="transparent" points="284.31,-556.67 284.31,-613.67 409.31,-613.67 409.31,-556.67 284.31,-556.67"/>
<polygon fill="none" stroke="black" points="284.31,-556.67 284.31,-613.67 409.31,-613.67 409.31,-556.67 284.31,-556.67"/>
<text text-anchor="start" x="313.81" y="-582.47" font-family="Times,serif" font-size="14.00"> </text>
<text text-anchor="start" x="318.81" y="-582.47" font-family="Times,serif" text-decoration="underline" font-size="14.00">StoreID</text>
<text text-anchor="start" x="374.81" y="-582.47" font-family="Times,serif" font-size="14.00"> </text>
<polygon fill="green" stroke="transparent" points="284.31,-499.67 284.31,-556.67 409.31,-556.67 409.31,-499.67 284.31,-499.67"/>
<polygon fill="none" stroke="black" points="284.31,-499.67 284.31,-556.67 409.31,-556.67 409.31,-499.67 284.31,-499.67"/>
<text text-anchor="start" x="316.31" y="-525.47" font-family="Times,serif" font-size="14.00"> </text>
<text text-anchor="start" x="321.31" y="-525.47" font-family="Times,serif" text-decoration="underline" font-size="14.00">DateID</text>
<text text-anchor="start" x="372.31" y="-525.47" font-family="Times,serif" font-size="14.00"> </text>
<polygon fill="red" stroke="transparent" points="284.31,-442.67 284.31,-499.67 409.31,-499.67 409.31,-442.67 284.31,-442.67"/>
<polygon fill="none" stroke="black" points="284.31,-442.67 284.31,-499.67 409.31,-499.67 409.31,-442.67 284.31,-442.67"/>
<text text-anchor="start" x="305.31" y="-468.47" font-family="Times,serif" font-size="14.00"> </text>
<text text-anchor="start" x="310.31" y="-468.47" font-family="Times,serif" text-decoration="underline" font-size="14.00">ProductID</text>
<text text-anchor="start" x="383.31" y="-468.47" font-family="Times,serif" font-size="14.00"> </text>
<polygon fill="none" stroke="black" points="284.31,-385.67 284.31,-442.67 409.31,-442.67 409.31,-385.67 284.31,-385.67"/>
<text text-anchor="start" x="315.31" y="-410.47" font-family="Times,serif" font-size="14.00">Quantity</text>
<polygon fill="none" stroke="black" points="284.31,-328.67 284.31,-385.67 409.31,-385.67 409.31,-328.67 284.31,-328.67"/>
<text text-anchor="start" x="315.81" y="-353.47" font-family="Times,serif" font-size="14.00">Receipts</text>
<text text-anchor="start" x="202.81" y="-624.17" font-family="Times,serif" font-size="20.00">SaleFT</text>
</g>
<!-- DateDT -->
<g id="node2" class="node">
<title>DateDT</title>
<polygon fill="green" stroke="transparent" points="659.81,-386.17 659.81,-557.17 762.81,-557.17 762.81,-386.17 659.81,-386.17"/>
<polygon fill="green" stroke="transparent" points="660.31,-499.67 660.31,-556.67 763.31,-556.67 763.31,-499.67 660.31,-499.67"/>
<polygon fill="none" stroke="black" points="660.31,-499.67 660.31,-556.67 763.31,-556.67 763.31,-499.67 660.31,-499.67"/>
<text text-anchor="start" x="681.31" y="-525.47" font-family="Times,serif" font-size="14.00"> </text>
<text text-anchor="start" x="686.31" y="-525.47" font-family="Times,serif" text-decoration="underline" font-size="14.00">DateID</text>
<text text-anchor="start" x="737.31" y="-525.47" font-family="Times,serif" font-size="14.00"> </text>
<polygon fill="none" stroke="black" points="660.31,-442.67 660.31,-499.67 763.31,-499.67 763.31,-442.67 660.31,-442.67"/>
<text text-anchor="start" x="694.81" y="-467.47" font-family="Times,serif" font-size="14.00">Date</text>
<polygon fill="none" stroke="black" points="660.31,-385.67 660.31,-442.67 763.31,-442.67 763.31,-385.67 660.31,-385.67"/>
<text text-anchor="start" x="688.31" y="-410.47" font-family="Times,serif" font-size="14.00">Month</text>
<text text-anchor="start" x="573.81" y="-567.17" font-family="Times,serif" font-size="20.00">DateDT</text>
</g>
<!-- SaleFT&#45;&gt;DateDT -->
<g id="edge1" class="edge">
<title>SaleFT:DateID&#45;&gt;DateDT:DateID</title>
<path fill="none" stroke="black" d="M409.31,-528.67C409.31,-528.67 660.31,-528.67 660.31,-528.67"/>
</g>
<!-- StoreDT -->
<g id="node3" class="node">
<title>StoreDT</title>
<polygon fill="yellow" stroke="transparent" points="108,-654.33 108,-939.33 253,-939.33 253,-654.33 108,-654.33"/>
<polygon fill="yellow" stroke="transparent" points="108.5,-881.83 108.5,-938.83 253.5,-938.83 253.5,-881.83 108.5,-881.83"/>
<polygon fill="none" stroke="black" points="108.5,-881.83 108.5,-938.83 253.5,-938.83 253.5,-881.83 108.5,-881.83"/>
<text text-anchor="start" x="148" y="-907.63" font-family="Times,serif" font-size="14.00"> </text>
<text text-anchor="start" x="153" y="-907.63" font-family="Times,serif" text-decoration="underline" font-size="14.00">StoreID</text>
<text text-anchor="start" x="209" y="-907.63" font-family="Times,serif" font-size="14.00"> </text>
<polygon fill="none" stroke="black" points="108.5,-824.83 108.5,-881.83 253.5,-881.83 253.5,-824.83 108.5,-824.83"/>
<text text-anchor="start" x="161" y="-849.63" font-family="Times,serif" font-size="14.00">Store</text>
<polygon fill="none" stroke="black" points="108.5,-767.83 108.5,-824.83 253.5,-824.83 253.5,-767.83 108.5,-767.83"/>
<text text-anchor="start" x="166" y="-792.63" font-family="Times,serif" font-size="14.00">City</text>
<polygon fill="none" stroke="black" points="108.5,-710.83 108.5,-767.83 253.5,-767.83 253.5,-710.83 108.5,-710.83"/>
<text text-anchor="start" x="152" y="-735.63" font-family="Times,serif" font-size="14.00">Country</text>
<polygon fill="none" stroke="black" points="108.5,-653.83 108.5,-710.83 253.5,-710.83 253.5,-653.83 108.5,-653.83"/>
<text text-anchor="start" x="129.5" y="-678.63" font-family="Times,serif" font-size="14.00">SalesManager</text>
<text text-anchor="start" x="15" y="-949.33" font-family="Times,serif" font-size="20.00">StoreDT</text>
</g>
<!-- SaleFT&#45;&gt;StoreDT -->
<g id="edge2" class="edge">
<title>SaleFT:StoreID&#45;&gt;StoreDT:StoreID</title>
<path fill="none" stroke="black" d="M284.31,-585.67C284.31,-585.67 253.5,-910.83 253.5,-910.83"/>
</g>
<!-- ProductDT -->
<g id="node4" class="node">
<title>ProductDT</title>
<polygon fill="red" stroke="transparent" points="118,-4 118,-289 243,-289 243,-4 118,-4"/>
<polygon fill="red" stroke="transparent" points="118.5,-231.5 118.5,-288.5 243.5,-288.5 243.5,-231.5 118.5,-231.5"/>
<polygon fill="none" stroke="black" points="118.5,-231.5 118.5,-288.5 243.5,-288.5 243.5,-231.5 118.5,-231.5"/>
<text text-anchor="start" x="139.5" y="-257.3" font-family="Times,serif" font-size="14.00"> </text>
<text text-anchor="start" x="144.5" y="-257.3" font-family="Times,serif" text-decoration="underline" font-size="14.00">ProductID</text>
<text text-anchor="start" x="217.5" y="-257.3" font-family="Times,serif" font-size="14.00"> </text>
<polygon fill="none" stroke="black" points="118.5,-174.5 118.5,-231.5 243.5,-231.5 243.5,-174.5 118.5,-174.5"/>
<text text-anchor="start" x="152.5" y="-199.3" font-family="Times,serif" font-size="14.00">Product</text>
<polygon fill="none" stroke="black" points="118.5,-117.5 118.5,-174.5 243.5,-174.5 243.5,-117.5 118.5,-117.5"/>
<text text-anchor="start" x="163.5" y="-142.3" font-family="Times,serif" font-size="14.00">Type</text>
<polygon fill="none" stroke="black" points="118.5,-60.5 118.5,-117.5 243.5,-117.5 243.5,-60.5 118.5,-60.5"/>
<text text-anchor="start" x="148" y="-85.3" font-family="Times,serif" font-size="14.00">Category</text>
<polygon fill="none" stroke="black" points="118.5,-3.5 118.5,-60.5 243.5,-60.5 243.5,-3.5 118.5,-3.5"/>
<text text-anchor="start" x="150.5" y="-28.3" font-family="Times,serif" font-size="14.00">Supplier</text>
<text text-anchor="start" x="0" y="-299" font-family="Times,serif" font-size="20.00">ProductDT</text>
</g>
<!-- SaleFT&#45;&gt;ProductDT -->
<g id="edge3" class="edge">
<title>SaleFT:ProductID&#45;&gt;ProductDT:ProductID</title>
<path fill="none" stroke="black" d="M284.31,-470.67C284.31,-470.67 243.5,-260.5 243.5,-260.5"/>
</g>
</g>
</svg>
